<svg width="31" height="31" viewBox="0 0 31 31" fill="none" xmlns="http://www.w3.org/2000/svg">
<g id="&#240;&#159;&#166;&#134; icon &#34;Question Circle&#34;">
<path id="Vector" d="M15.5 0C24.0604 0 31 6.93958 31 15.5C31 24.0604 24.0604 31 15.5 31C6.93958 31 0 24.0604 0 15.5C0 6.93958 6.93958 0 15.5 0ZM15.5 2.58333C8.36633 2.58333 2.58333 8.36633 2.58333 15.5C2.58333 22.6336 8.36633 28.4167 15.5 28.4167C22.6336 28.4167 28.4167 22.6336 28.4167 15.5C28.4167 8.36633 22.6336 2.58333 15.5 2.58333ZM15.5 21.9583C16.57 21.9583 17.4375 22.8258 17.4375 23.8958C17.4375 24.9658 16.57 25.8333 15.5 25.8333C14.43 25.8333 13.5625 24.9658 13.5625 23.8958C13.5625 22.8258 14.43 21.9583 15.5 21.9583ZM15.5 6.45833C18.3535 6.45833 20.6667 8.77153 20.6667 11.625C20.6667 13.5122 20.1196 14.5692 18.719 16.0371L18.0367 16.7334C17.0617 17.7501 16.7917 18.298 16.7917 19.375C16.7917 20.0884 16.2134 20.6667 15.5 20.6667C14.7866 20.6667 14.2083 20.0884 14.2083 19.375C14.2083 17.4878 14.7554 16.4308 16.156 14.9629L16.8383 14.2666C17.8133 13.2499 18.0833 12.702 18.0833 11.625C18.0833 10.1983 16.9267 9.04167 15.5 9.04167C14.0733 9.04167 12.9167 10.1983 12.9167 11.625C12.9167 12.3384 12.3384 12.9167 11.625 12.9167C10.9116 12.9167 10.3333 12.3384 10.3333 11.625C10.3333 8.77153 12.6465 6.45833 15.5 6.45833Z" fill="black"/>
</g>
</svg>
