<svg width="28" height="28" viewBox="0 0 28 28" fill="none" xmlns="http://www.w3.org/2000/svg">
<g id="&#240;&#159;&#166;&#134; icon &#34;github&#34;">
<path id="Vector" d="M14 0C10.287 0 6.72601 1.475 4.10051 4.10051C1.475 6.72601 0 10.287 0 14C0 17.713 1.475 21.274 4.10051 23.8995C6.72601 26.525 10.287 28 14 28C17.713 28 21.274 26.525 23.8995 23.8995C26.525 21.274 28 17.713 28 14C28 10.287 26.525 6.72601 23.8995 4.10051C21.274 1.475 17.713 0 14 0ZM17.6909 25.4138H17.5815C17.4999 25.4182 17.4184 25.4059 17.3418 25.3777C17.2652 25.3495 17.1952 25.3059 17.136 25.2496C17.0813 25.192 17.0386 25.124 17.0105 25.0498C16.9823 24.9755 16.9691 24.8963 16.9718 24.8169V23.1751C16.9795 22.6304 16.9845 22.0805 16.9845 21.5244C16.9825 21.118 16.9229 20.7139 16.8076 20.3242C16.699 19.9306 16.48 19.5764 16.1764 19.3035C16.9895 19.2249 17.7888 19.0401 18.5538 18.7536C19.1992 18.5084 19.7831 18.1248 20.2644 17.6298C20.7391 17.1309 21.0916 16.5302 21.2953 15.8722C21.5447 15.0678 21.6631 14.2304 21.6465 13.3878C21.6503 12.8 21.5468 12.2165 21.3411 11.6658C21.1333 11.1109 20.819 10.602 20.4158 10.1678C20.5024 9.94891 20.566 9.72109 20.6042 9.48818C20.6929 8.95486 20.6773 8.4094 20.5584 7.882C20.4946 7.57899 20.4083 7.28119 20.3 6.99109C20.2586 6.97512 20.2145 6.96734 20.1702 6.96818H20.0429C19.7756 6.97073 19.5096 7.01527 19.2564 7.098C18.9764 7.17945 18.7015 7.28127 18.4355 7.40218C18.171 7.52058 17.9134 7.65401 17.6642 7.80182C17.4371 7.93571 17.2143 8.07662 16.996 8.22436C15.0335 7.67746 12.9589 7.67746 10.9964 8.22436C10.7772 8.07794 10.5544 7.93705 10.3282 7.80182C10.0755 7.65235 9.81361 7.51888 9.54418 7.40218C9.27905 7.27813 9.00403 7.17638 8.722 7.098C8.47263 7.01552 8.21209 6.97174 7.94945 6.96818H7.82218C7.7786 6.96797 7.73538 6.97619 7.69491 6.99236C7.5844 7.28239 7.49382 7.57963 7.42382 7.882C7.31342 8.41069 7.30177 8.95525 7.38945 9.48818C7.42764 9.72109 7.49 9.94891 7.57655 10.1678C7.17372 10.6021 6.85982 11.111 6.65255 11.6658C6.44685 12.2165 6.34333 12.8 6.34709 13.3878C6.33025 14.2243 6.44449 15.0583 6.68564 15.8595C6.89818 16.5175 7.24945 17.122 7.71782 17.6298C8.20145 18.1211 8.78436 18.5042 9.42836 18.7536C10.1895 19.0464 10.9875 19.2335 11.7995 19.3098C11.5729 19.5147 11.3922 19.768 11.2725 20.048C11.158 20.3267 11.0778 20.6182 11.0384 20.916C10.6104 21.1212 10.1423 21.229 9.66764 21.2316C9.22685 21.2488 8.79196 21.1258 8.42545 20.8804C8.07334 20.6199 7.77511 20.2935 7.54727 19.9195C7.44539 19.7626 7.3318 19.6137 7.20745 19.474C7.0761 19.3275 6.93121 19.1937 6.77473 19.0744C6.61968 18.9587 6.44972 18.8645 6.26945 18.7944C6.09254 18.7166 5.90144 18.6763 5.70818 18.676C5.66131 18.6775 5.61456 18.6817 5.56818 18.6887C5.50455 18.6887 5.44091 18.6964 5.37982 18.7116C5.32518 18.7258 5.27347 18.7495 5.22709 18.7816C5.20658 18.7933 5.18946 18.8102 5.17741 18.8305C5.16536 18.8508 5.1588 18.8738 5.15836 18.8975C5.16346 18.9537 5.1808 19.0081 5.20916 19.0569C5.23752 19.1057 5.27622 19.1477 5.32255 19.18C5.42945 19.2665 5.51982 19.3327 5.59236 19.3798L5.62545 19.404C5.782 19.5236 5.93091 19.6535 6.07091 19.7922C6.20327 19.9067 6.32164 20.0365 6.42218 20.1778C6.52782 20.3153 6.61818 20.4655 6.692 20.622C6.77727 20.7785 6.86764 20.958 6.96182 21.1616C7.18073 21.714 7.57018 22.1824 8.07418 22.498C8.60236 22.7818 9.19673 22.9231 9.79618 22.9078C9.99982 22.9078 10.2035 22.8951 10.4071 22.8722C10.6056 22.8404 10.8055 22.806 11.0053 22.7665V24.8004C11.0087 24.8822 10.9948 24.9638 10.9646 25.0399C10.9344 25.1161 10.8885 25.185 10.8299 25.2422C10.7714 25.2995 10.7014 25.3438 10.6246 25.3722C10.5478 25.4007 10.4659 25.4127 10.3842 25.4075H10.3116C7.59131 24.5286 5.27415 22.7073 3.7774 20.2717C2.28065 17.836 1.70267 14.946 2.14754 12.1221C2.5924 9.29812 4.03088 6.72577 6.20394 4.86824C8.377 3.01071 11.1419 1.99005 14.0006 1.99005C16.8594 1.99005 19.6243 3.01071 21.7973 4.86824C23.9704 6.72577 25.4089 9.29812 25.8537 12.1221C26.2986 14.946 25.7206 17.836 24.2239 20.2717C22.7271 22.7073 20.41 24.5286 17.6896 25.4075L17.6909 25.4138Z" fill="white"/>
</g>
</svg>
