<svg width="57" height="76" viewBox="0 0 57 76" fill="none" xmlns="http://www.w3.org/2000/svg">
<g id="&#240;&#159;&#166;&#134; icon &#34;Mic On&#34;">
<g id="Group">
<path id="Vector" d="M28.3012 0.645996C19.7053 0.645996 12.737 7.61433 12.737 16.2102V38C12.737 46.5959 19.7053 53.5642 28.3012 53.5642C36.897 53.5642 43.8653 46.5959 43.8653 38V16.2102C43.8653 7.61433 36.897 0.645996 28.3012 0.645996Z" fill="#39FF14"/>
<path id="Vector_2" d="M3.39848 34.8872C5.11764 34.8872 6.51132 36.2809 6.51132 38C6.51132 50.0343 16.2669 59.7899 28.3012 59.7899C40.3354 59.7899 50.091 50.0343 50.091 38C50.091 36.2809 51.485 34.8872 53.2039 34.8872C54.9228 34.8872 56.3167 36.2809 56.3167 38C56.3167 52.4206 45.4218 64.296 31.414 65.8444V72.2412C31.414 73.9602 30.0203 75.3541 28.3012 75.3541C26.582 75.3541 25.1883 73.9602 25.1883 72.2412V65.8444C11.1807 64.296 0.285645 52.4206 0.285645 38C0.285645 36.2809 1.67932 34.8872 3.39848 34.8872Z" fill="#39FF14"/>
</g>
</g>
</svg>
