<svg width="31" height="31" viewBox="0 0 31 31" fill="none" xmlns="http://www.w3.org/2000/svg">
<g id="&#240;&#159;&#166;&#134; icon &#34;Send&#34;">
<path id="Vector" d="M2.01856 0.556248L30.256 14.4704C30.7116 14.6948 30.8989 15.2461 30.6744 15.7016C30.5848 15.8834 30.4378 16.0304 30.256 16.12L2.01914 30.0338C1.56361 30.2583 1.01236 30.071 0.787889 29.6154C0.689736 29.4162 0.666983 29.1883 0.723834 28.9736L3.52147 18.4089C3.61399 18.0595 3.90262 17.7967 4.25912 17.7373L16.9135 15.6274C17.0685 15.6015 17.1967 15.4992 17.2583 15.3601L17.2914 15.2494C17.3272 15.0348 17.208 14.8301 17.0154 14.7497L16.9135 14.7204L4.18768 12.5994C3.83103 12.5399 3.54232 12.277 3.44988 11.9275L0.723196 1.61626C0.593304 1.12531 0.885993 0.622028 1.37694 0.492136C1.59154 0.435357 1.81944 0.458129 2.01856 0.556248Z" fill="black"/>
</g>
</svg>
